<svg width="16" height="13" viewBox="0 0 16 13" fill="none" xmlns="http://www.w3.org/2000/svg">
<path d="M1.996 6.4C1.996 5.80267 2.05467 5.25333 2.172 4.752C2.28933 4.25067 2.45467 3.81867 2.668 3.456C2.892 3.09333 3.15867 2.816 3.468 2.624C3.77733 2.42133 4.11867 2.32 4.492 2.32C4.88667 2.32 5.23333 2.42133 5.532 2.624C5.84133 2.816 6.10267 3.09333 6.316 3.456C6.54 3.81867 6.71067 4.25067 6.828 4.752C6.94533 5.25333 7.004 5.80267 7.004 6.4C7.004 6.99733 6.94533 7.54667 6.828 8.048C6.71067 8.54933 6.54 8.98133 6.316 9.344C6.10267 9.70667 5.84133 9.98933 5.532 10.192C5.23333 10.384 4.88667 10.48 4.492 10.48C4.11867 10.48 3.77733 10.384 3.468 10.192C3.15867 9.98933 2.892 9.70667 2.668 9.344C2.45467 8.98133 2.28933 8.54933 2.172 8.048C2.05467 7.54667 1.996 6.99733 1.996 6.4ZM0.14 6.4C0.14 7.56267 0.321333 8.576 0.684 9.44C1.05733 10.304 1.56933 10.976 2.22 11.456C2.88133 11.936 3.63867 12.176 4.492 12.176C5.36667 12.176 6.12933 11.936 6.78 11.456C7.44133 10.976 7.95333 10.304 8.316 9.44C8.67867 8.576 8.86 7.56267 8.86 6.4C8.86 5.23733 8.67867 4.224 8.316 3.36C7.95333 2.496 7.44133 1.824 6.78 1.344C6.12933 0.864 5.36667 0.624 4.492 0.624C3.63867 0.624 2.88133 0.864 2.22 1.344C1.56933 1.824 1.05733 2.496 0.684 3.36C0.321333 4.224 0.14 5.23733 0.14 6.4ZM10.7 3.424L13.292 2.704V12H15.164V0.624L10.7 1.632V3.424Z" fill="#292F36"/>
</svg>
