<svg width="19" height="13" viewBox="0 0 19 13" fill="none" xmlns="http://www.w3.org/2000/svg">
<path d="M1.996 6.4C1.996 5.80267 2.05467 5.25333 2.172 4.752C2.28933 4.25067 2.45467 3.81867 2.668 3.456C2.892 3.09333 3.15867 2.816 3.468 2.624C3.77733 2.42133 4.11867 2.32 4.492 2.32C4.88667 2.32 5.23333 2.42133 5.532 2.624C5.84133 2.816 6.10267 3.09333 6.316 3.456C6.54 3.81867 6.71067 4.25067 6.828 4.752C6.94533 5.25333 7.004 5.80267 7.004 6.4C7.004 6.99733 6.94533 7.54667 6.828 8.048C6.71067 8.54933 6.54 8.98133 6.316 9.344C6.10267 9.70667 5.84133 9.98933 5.532 10.192C5.23333 10.384 4.88667 10.48 4.492 10.48C4.11867 10.48 3.77733 10.384 3.468 10.192C3.15867 9.98933 2.892 9.70667 2.668 9.344C2.45467 8.98133 2.28933 8.54933 2.172 8.048C2.05467 7.54667 1.996 6.99733 1.996 6.4ZM0.14 6.4C0.14 7.56267 0.321333 8.576 0.684 9.44C1.05733 10.304 1.56933 10.976 2.22 11.456C2.88133 11.936 3.63867 12.176 4.492 12.176C5.36667 12.176 6.12933 11.936 6.78 11.456C7.44133 10.976 7.95333 10.304 8.316 9.44C8.67867 8.576 8.86 7.56267 8.86 6.4C8.86 5.23733 8.67867 4.224 8.316 3.36C7.95333 2.496 7.44133 1.824 6.78 1.344C6.12933 0.864 5.36667 0.624 4.492 0.624C3.63867 0.624 2.88133 0.864 2.22 1.344C1.56933 1.824 1.05733 2.496 0.684 3.36C0.321333 4.224 0.14 5.23733 0.14 6.4ZM9.82 12H18.364V10.24H13.5L16.684 7.12C17.1427 6.69333 17.5107 6.208 17.788 5.664C18.076 5.12 18.22 4.55467 18.22 3.968C18.22 3.59467 18.14 3.21067 17.98 2.816C17.8307 2.42133 17.596 2.05867 17.276 1.728C16.9667 1.39733 16.572 1.13067 16.092 0.927999C15.612 0.714666 15.0467 0.608 14.396 0.608C13.5427 0.608 12.8173 0.789333 12.22 1.152C11.6333 1.504 11.1853 1.99467 10.876 2.624C10.5773 3.24267 10.428 3.952 10.428 4.752H12.3C12.3 4.26133 12.38 3.82933 12.54 3.456C12.7107 3.08267 12.9507 2.8 13.26 2.608C13.5693 2.40533 13.9373 2.304 14.364 2.304C14.6733 2.304 14.9453 2.35733 15.18 2.464C15.4147 2.56 15.612 2.69333 15.772 2.864C15.9427 3.03467 16.0653 3.22667 16.14 3.44C16.2253 3.64267 16.268 3.85067 16.268 4.064C16.268 4.36267 16.22 4.64533 16.124 4.912C16.028 5.17867 15.884 5.44533 15.692 5.712C15.5 5.97867 15.2707 6.256 15.004 6.544L9.82 12Z" fill="#292F36"/>
</svg>
