<svg width="19" height="13" viewBox="0 0 19 13" fill="none" xmlns="http://www.w3.org/2000/svg">
<path d="M1.996 6.4C1.996 5.80267 2.05467 5.25333 2.172 4.752C2.28933 4.25067 2.45467 3.81867 2.668 3.456C2.892 3.09333 3.15867 2.816 3.468 2.624C3.77733 2.42133 4.11867 2.32 4.492 2.32C4.88667 2.32 5.23333 2.42133 5.532 2.624C5.84133 2.816 6.10267 3.09333 6.316 3.456C6.54 3.81867 6.71067 4.25067 6.828 4.752C6.94533 5.25333 7.004 5.80267 7.004 6.4C7.004 6.99733 6.94533 7.54667 6.828 8.048C6.71067 8.54933 6.54 8.98133 6.316 9.344C6.10267 9.70667 5.84133 9.98933 5.532 10.192C5.23333 10.384 4.88667 10.48 4.492 10.48C4.11867 10.48 3.77733 10.384 3.468 10.192C3.15867 9.98933 2.892 9.70667 2.668 9.344C2.45467 8.98133 2.28933 8.54933 2.172 8.048C2.05467 7.54667 1.996 6.99733 1.996 6.4ZM0.14 6.4C0.14 7.56267 0.321333 8.576 0.684 9.44C1.05733 10.304 1.56933 10.976 2.22 11.456C2.88133 11.936 3.63867 12.176 4.492 12.176C5.36667 12.176 6.12933 11.936 6.78 11.456C7.44133 10.976 7.95333 10.304 8.316 9.44C8.67867 8.576 8.86 7.56267 8.86 6.4C8.86 5.23733 8.67867 4.224 8.316 3.36C7.95333 2.496 7.44133 1.824 6.78 1.344C6.12933 0.864 5.36667 0.624 4.492 0.624C3.63867 0.624 2.88133 0.864 2.22 1.344C1.56933 1.824 1.05733 2.496 0.684 3.36C0.321333 4.224 0.14 5.23733 0.14 6.4ZM13.692 6.512C14.4813 6.512 15.18 6.39467 15.788 6.16C16.4067 5.92533 16.892 5.58933 17.244 5.152C17.596 4.71467 17.772 4.21333 17.772 3.648C17.772 3.09333 17.6333 2.592 17.356 2.144C17.0893 1.68533 16.7 1.31733 16.188 1.04C15.676 0.762666 15.0573 0.624 14.332 0.624C13.6493 0.624 13.0467 0.762666 12.524 1.04C12.0013 1.30667 11.5907 1.67467 11.292 2.144C11.004 2.61333 10.86 3.15733 10.86 3.776H12.636C12.636 3.328 12.796 2.96 13.116 2.672C13.4467 2.37333 13.8573 2.224 14.348 2.224C14.6787 2.224 14.956 2.288 15.18 2.416C15.404 2.544 15.5747 2.72533 15.692 2.96C15.8093 3.184 15.868 3.44533 15.868 3.744C15.868 3.97867 15.8147 4.208 15.708 4.432C15.612 4.64533 15.468 4.832 15.276 4.992C15.0947 5.152 14.8707 5.28 14.604 5.376C14.3373 5.46133 14.0333 5.504 13.692 5.504V6.512ZM14.252 12.192C15.02 12.192 15.692 12.0587 16.268 11.792C16.844 11.5253 17.292 11.152 17.612 10.672C17.932 10.192 18.092 9.63733 18.092 9.008C18.092 8.44267 17.98 7.96267 17.756 7.568C17.532 7.16267 17.2173 6.83733 16.812 6.592C16.4173 6.336 15.9533 6.14933 15.42 6.032C14.8867 5.904 14.3107 5.84 13.692 5.84V6.912C14.0653 6.912 14.4067 6.95467 14.716 7.04C15.0253 7.12533 15.2867 7.248 15.5 7.408C15.724 7.568 15.8947 7.76533 16.012 8C16.1293 8.23467 16.188 8.50133 16.188 8.8C16.188 9.17333 16.108 9.49333 15.948 9.76C15.788 10.016 15.564 10.2133 15.276 10.352C14.9987 10.4907 14.668 10.56 14.284 10.56C13.9107 10.56 13.5693 10.4907 13.26 10.352C12.9507 10.2027 12.7053 10 12.524 9.744C12.3533 9.47733 12.268 9.16267 12.268 8.8H10.38C10.38 9.25867 10.4707 9.696 10.652 10.112C10.8333 10.5173 11.0893 10.88 11.42 11.2C11.7507 11.5093 12.156 11.7547 12.636 11.936C13.116 12.1067 13.6547 12.192 14.252 12.192Z" fill="#292F36"/>
</svg>
